<mxfile host="app.diagrams.net" agent="Mozilla/5.0 (X11; Linux x86_64; rv:131.0) Gecko/20100101 Firefox/131.0" version="24.8.1">
  <diagram name="Seite-1" id="GFA_SByiZ649OcQAbFE9">
    <mxGraphModel dx="952" dy="637" grid="1" gridSize="10" guides="1" tooltips="1" connect="1" arrows="1" fold="1" page="1" pageScale="1" pageWidth="827" pageHeight="1169" math="0" shadow="0">
      <root>
        <mxCell id="0" />
        <mxCell id="1" parent="0" />
        <mxCell id="Q9ZKkBL_76BCk9_iBAh2-4" value="&lt;p style=&quot;margin:0px;margin-top:4px;margin-left:10px;text-align:left;&quot;&gt;&lt;b&gt;bdd &lt;/b&gt;[ package ] Structure [ 3D-Printing Production System ]&lt;/p&gt;" style="html=1;shape=mxgraph.sysml.package;labelX=362.47;align=left;spacingLeft=10;overflow=fill;recursiveResize=0;" parent="1" vertex="1">
          <mxGeometry y="60" width="1020" height="690" as="geometry" />
        </mxCell>
        <mxCell id="Q9ZKkBL_76BCk9_iBAh2-5" value="&lt;span style=&quot;font-weight: normal;&quot;&gt;&lt;i&gt;&amp;lt;&amp;lt; block &amp;gt;&amp;gt;&lt;/i&gt;&lt;/span&gt;&lt;br&gt;&lt;div&gt;3D-Printing Production System&lt;/div&gt;" style="strokeColor=inherit;fillColor=inherit;gradientColor=inherit;shape=rect;fontStyle=1;html=1;whiteSpace=wrap;align=center;" parent="Q9ZKkBL_76BCk9_iBAh2-4" vertex="1">
          <mxGeometry x="370" y="70" width="150" height="70" as="geometry" />
        </mxCell>
        <mxCell id="Q9ZKkBL_76BCk9_iBAh2-6" value="&lt;div style=&quot;font-size: 8px;&quot;&gt;&lt;span style=&quot;font-weight: normal;&quot;&gt;&amp;lt;&amp;lt; block &amp;gt;&amp;gt;&lt;/span&gt;&lt;/div&gt;&lt;div style=&quot;font-size: 8px;&quot;&gt;&lt;span style=&quot;font-weight: normal;&quot;&gt;&amp;lt;&amp;lt; physical &amp;gt;&amp;gt;&lt;br&gt;&lt;/span&gt;&lt;/div&gt;&lt;div&gt;Logistics&lt;br&gt;&lt;/div&gt;" style="strokeColor=inherit;fillColor=inherit;gradientColor=inherit;shape=rect;fontStyle=1;html=1;whiteSpace=wrap;align=center;" parent="Q9ZKkBL_76BCk9_iBAh2-4" vertex="1">
          <mxGeometry x="520" y="240" width="120" height="70" as="geometry" />
        </mxCell>
        <mxCell id="Q9ZKkBL_76BCk9_iBAh2-7" value="" style="strokeColor=inherit;fillColor=inherit;gradientColor=inherit;align=right;html=1;verticalAlign=bottom;endArrow=none;startArrow=diamondThin;startSize=14;startFill=1;edgeStyle=orthogonalEdgeStyle;endFill=0;labelBackgroundColor=none;rounded=0;" parent="Q9ZKkBL_76BCk9_iBAh2-4" source="Q9ZKkBL_76BCk9_iBAh2-5" target="Q9ZKkBL_76BCk9_iBAh2-6" edge="1">
          <mxGeometry x="0.9184" relative="1" as="geometry">
            <mxPoint as="offset" />
          </mxGeometry>
        </mxCell>
        <mxCell id="Q9ZKkBL_76BCk9_iBAh2-8" value="1" style="resizable=0;html=1;align=left;verticalAlign=top;labelBackgroundColor=none;fontSize=10" parent="Q9ZKkBL_76BCk9_iBAh2-7" connectable="0" vertex="1">
          <mxGeometry x="-1" relative="1" as="geometry">
            <mxPoint x="5" y="10" as="offset" />
          </mxGeometry>
        </mxCell>
        <mxCell id="Q9ZKkBL_76BCk9_iBAh2-9" value="1" style="resizable=0;html=1;align=right;verticalAlign=top;labelBackgroundColor=none;fontSize=10" parent="Q9ZKkBL_76BCk9_iBAh2-7" connectable="0" vertex="1">
          <mxGeometry x="1" relative="1" as="geometry">
            <mxPoint x="20" y="-31" as="offset" />
          </mxGeometry>
        </mxCell>
        <mxCell id="0YOrRNStGJFLoWrIP_f3-7" style="edgeStyle=orthogonalEdgeStyle;rounded=0;orthogonalLoop=1;jettySize=auto;html=1;exitX=0.75;exitY=1;exitDx=0;exitDy=0;entryX=0.25;entryY=0;entryDx=0;entryDy=0;endArrow=classic;endFill=1;fillColor=#d5e8d4;strokeColor=#82b366;strokeWidth=2;startArrow=classic;startFill=1;" parent="Q9ZKkBL_76BCk9_iBAh2-4" source="Q9ZKkBL_76BCk9_iBAh2-10" target="Q9ZKkBL_76BCk9_iBAh2-17" edge="1">
          <mxGeometry relative="1" as="geometry" />
        </mxCell>
        <mxCell id="0YOrRNStGJFLoWrIP_f3-8" value="Printing Data" style="edgeLabel;html=1;align=center;verticalAlign=middle;resizable=0;points=[];" parent="0YOrRNStGJFLoWrIP_f3-7" vertex="1" connectable="0">
          <mxGeometry x="-0.595" y="-1" relative="1" as="geometry">
            <mxPoint x="23" y="3" as="offset" />
          </mxGeometry>
        </mxCell>
        <mxCell id="HfJMQKa8n6tODAaL_8SI-4" style="edgeStyle=orthogonalEdgeStyle;rounded=0;orthogonalLoop=1;jettySize=auto;html=1;exitX=0.5;exitY=1;exitDx=0;exitDy=0;entryX=0;entryY=0.5;entryDx=0;entryDy=0;endArrow=none;endFill=0;fillColor=#f8cecc;strokeColor=#b85450;startArrow=classic;startFill=1;" edge="1" parent="Q9ZKkBL_76BCk9_iBAh2-4" source="Q9ZKkBL_76BCk9_iBAh2-10" target="Q9ZKkBL_76BCk9_iBAh2-56">
          <mxGeometry relative="1" as="geometry" />
        </mxCell>
        <mxCell id="HfJMQKa8n6tODAaL_8SI-5" value="Materials" style="edgeLabel;html=1;align=center;verticalAlign=middle;resizable=0;points=[];" vertex="1" connectable="0" parent="HfJMQKa8n6tODAaL_8SI-4">
          <mxGeometry x="0.3012" y="-1" relative="1" as="geometry">
            <mxPoint x="-31" y="-63" as="offset" />
          </mxGeometry>
        </mxCell>
        <mxCell id="Q9ZKkBL_76BCk9_iBAh2-10" value="&lt;div style=&quot;font-size: 8px;&quot;&gt;&lt;span style=&quot;font-weight: normal;&quot;&gt;&lt;i&gt;&amp;lt;&amp;lt; block &amp;gt;&amp;gt;&lt;/i&gt;&lt;/span&gt;&lt;/div&gt;&lt;div style=&quot;font-size: 8px;&quot;&gt;&lt;span style=&quot;font-weight: normal;&quot;&gt;&lt;i&gt;&amp;lt;&amp;lt; physical &amp;gt;&amp;gt;&lt;br&gt;&lt;/i&gt;&lt;/span&gt;&lt;/div&gt;&lt;div&gt;3D-Printing&lt;br&gt;&lt;/div&gt;" style="strokeColor=inherit;fillColor=inherit;gradientColor=inherit;shape=rect;fontStyle=1;html=1;whiteSpace=wrap;align=center;" parent="Q9ZKkBL_76BCk9_iBAh2-4" vertex="1">
          <mxGeometry x="280" y="240" width="130" height="70" as="geometry" />
        </mxCell>
        <mxCell id="Q9ZKkBL_76BCk9_iBAh2-13" value="" style="align=right;html=1;verticalAlign=bottom;endArrow=none;startArrow=diamondThin;startSize=14;startFill=1;edgeStyle=none;rounded=0;entryX=0.5;entryY=0;entryDx=0;entryDy=0;exitX=0.5;exitY=1;exitDx=0;exitDy=0;" parent="Q9ZKkBL_76BCk9_iBAh2-4" source="Q9ZKkBL_76BCk9_iBAh2-5" target="Q9ZKkBL_76BCk9_iBAh2-17" edge="1">
          <mxGeometry x="-0.2" y="-5" relative="1" as="geometry">
            <mxPoint x="440" y="140" as="sourcePoint" />
            <mxPoint x="445" y="340" as="targetPoint" />
            <mxPoint as="offset" />
          </mxGeometry>
        </mxCell>
        <mxCell id="Q9ZKkBL_76BCk9_iBAh2-14" value="1" style="resizable=0;html=1;align=left;verticalAlign=top;labelBackgroundColor=none;fontSize=10" parent="Q9ZKkBL_76BCk9_iBAh2-13" connectable="0" vertex="1">
          <mxGeometry x="-1" relative="1" as="geometry">
            <mxPoint x="5" y="10" as="offset" />
          </mxGeometry>
        </mxCell>
        <mxCell id="Q9ZKkBL_76BCk9_iBAh2-15" value="1" style="resizable=0;html=1;align=right;verticalAlign=top;labelBackgroundColor=none;fontSize=10" parent="Q9ZKkBL_76BCk9_iBAh2-13" connectable="0" vertex="1">
          <mxGeometry x="1" relative="1" as="geometry">
            <mxPoint x="25" y="-30" as="offset" />
          </mxGeometry>
        </mxCell>
        <mxCell id="0YOrRNStGJFLoWrIP_f3-1" style="edgeStyle=orthogonalEdgeStyle;rounded=0;orthogonalLoop=1;jettySize=auto;html=1;exitX=0.5;exitY=1;exitDx=0;exitDy=0;entryX=0;entryY=0.25;entryDx=0;entryDy=0;endArrow=classic;endFill=1;fillColor=#d5e8d4;strokeColor=#82b366;strokeWidth=2;startArrow=classic;startFill=1;" parent="Q9ZKkBL_76BCk9_iBAh2-4" source="Q9ZKkBL_76BCk9_iBAh2-17" target="Q9ZKkBL_76BCk9_iBAh2-56" edge="1">
          <mxGeometry relative="1" as="geometry">
            <Array as="points">
              <mxPoint x="445" y="480" />
              <mxPoint x="480" y="480" />
              <mxPoint x="480" y="479" />
            </Array>
          </mxGeometry>
        </mxCell>
        <mxCell id="0YOrRNStGJFLoWrIP_f3-6" value="&lt;div&gt;Product Data&lt;br&gt;&lt;/div&gt;" style="edgeLabel;html=1;align=center;verticalAlign=middle;resizable=0;points=[];" parent="0YOrRNStGJFLoWrIP_f3-1" vertex="1" connectable="0">
          <mxGeometry x="-0.5206" y="-1" relative="1" as="geometry">
            <mxPoint x="-6" y="12" as="offset" />
          </mxGeometry>
        </mxCell>
        <mxCell id="0YOrRNStGJFLoWrIP_f3-2" style="edgeStyle=orthogonalEdgeStyle;rounded=0;orthogonalLoop=1;jettySize=auto;html=1;exitX=1;exitY=0.25;exitDx=0;exitDy=0;entryX=0.5;entryY=1;entryDx=0;entryDy=0;endArrow=none;endFill=0;fillColor=#d5e8d4;strokeColor=#82b366;strokeWidth=2;startArrow=classic;startFill=1;" parent="Q9ZKkBL_76BCk9_iBAh2-4" source="Q9ZKkBL_76BCk9_iBAh2-17" target="Q9ZKkBL_76BCk9_iBAh2-55" edge="1">
          <mxGeometry relative="1" as="geometry" />
        </mxCell>
        <mxCell id="0YOrRNStGJFLoWrIP_f3-3" value="Quality Data" style="edgeLabel;html=1;align=center;verticalAlign=middle;resizable=0;points=[];" parent="0YOrRNStGJFLoWrIP_f3-2" vertex="1" connectable="0">
          <mxGeometry x="0.2" relative="1" as="geometry">
            <mxPoint x="-18" y="-8" as="offset" />
          </mxGeometry>
        </mxCell>
        <mxCell id="Q9ZKkBL_76BCk9_iBAh2-17" value="&lt;div style=&quot;font-size: 8px;&quot;&gt;&lt;span style=&quot;font-weight: normal;&quot;&gt;&lt;i&gt;&amp;lt;&amp;lt; block &amp;gt;&amp;gt;&lt;/i&gt;&lt;/span&gt;&lt;/div&gt;&lt;div style=&quot;font-size: 8px;&quot;&gt;&lt;span style=&quot;font-weight: normal;&quot;&gt;&lt;i&gt;&amp;lt;&amp;lt; physical &amp;gt;&amp;gt;&lt;br&gt;&lt;/i&gt;&lt;/span&gt;&lt;/div&gt;MES" style="strokeColor=inherit;fillColor=inherit;gradientColor=inherit;shape=rect;fontStyle=1;html=1;whiteSpace=wrap;align=center;" parent="Q9ZKkBL_76BCk9_iBAh2-4" vertex="1">
          <mxGeometry x="380" y="360" width="130" height="70" as="geometry" />
        </mxCell>
        <mxCell id="Q9ZKkBL_76BCk9_iBAh2-55" value="&lt;div style=&quot;font-size: 8px;&quot;&gt;&lt;span style=&quot;font-weight: normal;&quot;&gt;&lt;i&gt;&amp;lt;&amp;lt; block &amp;gt;&amp;gt;&lt;/i&gt;&lt;/span&gt;&lt;/div&gt;&lt;div style=&quot;font-size: 8px;&quot;&gt;&lt;span style=&quot;font-weight: normal;&quot;&gt;&lt;i&gt;&amp;lt;&amp;lt; physical &amp;gt;&amp;gt;&lt;br&gt;&lt;/i&gt;&lt;/span&gt;&lt;/div&gt;&lt;div&gt;Quality Assurance&lt;br&gt;&lt;/div&gt;" style="strokeColor=inherit;fillColor=inherit;gradientColor=inherit;shape=rect;fontStyle=1;html=1;whiteSpace=wrap;align=center;" parent="Q9ZKkBL_76BCk9_iBAh2-4" vertex="1">
          <mxGeometry x="660" y="240" width="130" height="70" as="geometry" />
        </mxCell>
        <mxCell id="0YOrRNStGJFLoWrIP_f3-12" style="edgeStyle=orthogonalEdgeStyle;rounded=0;orthogonalLoop=1;jettySize=auto;html=1;exitX=1;exitY=0.75;exitDx=0;exitDy=0;entryX=0;entryY=0.5;entryDx=0;entryDy=0;endArrow=classic;endFill=1;fillColor=#dae8fc;strokeColor=#6c8ebf;strokeWidth=2;startArrow=classic;startFill=1;" parent="Q9ZKkBL_76BCk9_iBAh2-4" source="Q9ZKkBL_76BCk9_iBAh2-56" target="Q9ZKkBL_76BCk9_iBAh2-57" edge="1">
          <mxGeometry relative="1" as="geometry" />
        </mxCell>
        <mxCell id="0YOrRNStGJFLoWrIP_f3-13" value="Products" style="edgeLabel;html=1;align=center;verticalAlign=middle;resizable=0;points=[];" parent="0YOrRNStGJFLoWrIP_f3-12" vertex="1" connectable="0">
          <mxGeometry x="-0.0988" y="-1" relative="1" as="geometry">
            <mxPoint x="-5" y="9" as="offset" />
          </mxGeometry>
        </mxCell>
        <mxCell id="0YOrRNStGJFLoWrIP_f3-14" style="edgeStyle=orthogonalEdgeStyle;rounded=0;orthogonalLoop=1;jettySize=auto;html=1;exitX=0;exitY=0.75;exitDx=0;exitDy=0;entryX=0.25;entryY=1;entryDx=0;entryDy=0;endArrow=none;endFill=0;fillColor=#dae8fc;strokeColor=#6c8ebf;strokeWidth=2;startArrow=classic;startFill=1;" parent="Q9ZKkBL_76BCk9_iBAh2-4" source="Q9ZKkBL_76BCk9_iBAh2-56" target="Q9ZKkBL_76BCk9_iBAh2-10" edge="1">
          <mxGeometry relative="1" as="geometry" />
        </mxCell>
        <mxCell id="0YOrRNStGJFLoWrIP_f3-15" value="Products" style="edgeLabel;html=1;align=center;verticalAlign=middle;resizable=0;points=[];" parent="0YOrRNStGJFLoWrIP_f3-14" vertex="1" connectable="0">
          <mxGeometry x="0.2365" relative="1" as="geometry">
            <mxPoint x="-2" y="17" as="offset" />
          </mxGeometry>
        </mxCell>
        <mxCell id="0YOrRNStGJFLoWrIP_f3-17" style="edgeStyle=orthogonalEdgeStyle;rounded=0;orthogonalLoop=1;jettySize=auto;html=1;exitX=0.5;exitY=1;exitDx=0;exitDy=0;entryX=0;entryY=0.75;entryDx=0;entryDy=0;endArrow=classic;endFill=1;fillColor=#dae8fc;strokeColor=#6c8ebf;strokeWidth=2;startArrow=classic;startFill=1;" parent="Q9ZKkBL_76BCk9_iBAh2-4" source="Q9ZKkBL_76BCk9_iBAh2-56" target="Q9ZKkBL_76BCk9_iBAh2-58" edge="1">
          <mxGeometry relative="1" as="geometry" />
        </mxCell>
        <mxCell id="0YOrRNStGJFLoWrIP_f3-18" value="Products" style="edgeLabel;html=1;align=center;verticalAlign=middle;resizable=0;points=[];" parent="0YOrRNStGJFLoWrIP_f3-17" vertex="1" connectable="0">
          <mxGeometry x="-0.1606" y="2" relative="1" as="geometry">
            <mxPoint y="1" as="offset" />
          </mxGeometry>
        </mxCell>
        <mxCell id="0YOrRNStGJFLoWrIP_f3-19" style="edgeStyle=orthogonalEdgeStyle;rounded=0;orthogonalLoop=1;jettySize=auto;html=1;exitX=0.25;exitY=1;exitDx=0;exitDy=0;entryX=1;entryY=0.75;entryDx=0;entryDy=0;fillColor=#dae8fc;strokeColor=#6c8ebf;endArrow=classic;endFill=1;strokeWidth=2;startArrow=classic;startFill=1;" parent="Q9ZKkBL_76BCk9_iBAh2-4" source="Q9ZKkBL_76BCk9_iBAh2-56" target="Q9ZKkBL_76BCk9_iBAh2-55" edge="1">
          <mxGeometry relative="1" as="geometry">
            <Array as="points">
              <mxPoint x="518" y="660" />
              <mxPoint x="950" y="660" />
              <mxPoint x="950" y="293" />
            </Array>
          </mxGeometry>
        </mxCell>
        <mxCell id="0YOrRNStGJFLoWrIP_f3-20" value="Products" style="edgeLabel;html=1;align=center;verticalAlign=middle;resizable=0;points=[];" parent="0YOrRNStGJFLoWrIP_f3-19" vertex="1" connectable="0">
          <mxGeometry x="-0.5769" relative="1" as="geometry">
            <mxPoint as="offset" />
          </mxGeometry>
        </mxCell>
        <mxCell id="HfJMQKa8n6tODAaL_8SI-1" style="edgeStyle=orthogonalEdgeStyle;rounded=0;orthogonalLoop=1;jettySize=auto;html=1;exitX=0.75;exitY=1;exitDx=0;exitDy=0;entryX=0;entryY=0.75;entryDx=0;entryDy=0;endArrow=none;endFill=0;fillColor=#f8cecc;strokeColor=#b85450;startArrow=classic;startFill=1;" edge="1" parent="Q9ZKkBL_76BCk9_iBAh2-4" source="Q9ZKkBL_76BCk9_iBAh2-56" target="Q9ZKkBL_76BCk9_iBAh2-57">
          <mxGeometry relative="1" as="geometry" />
        </mxCell>
        <mxCell id="HfJMQKa8n6tODAaL_8SI-2" value="Materials" style="edgeLabel;html=1;align=center;verticalAlign=middle;resizable=0;points=[];" vertex="1" connectable="0" parent="HfJMQKa8n6tODAaL_8SI-1">
          <mxGeometry x="-0.131" y="1" relative="1" as="geometry">
            <mxPoint x="14" as="offset" />
          </mxGeometry>
        </mxCell>
        <mxCell id="Q9ZKkBL_76BCk9_iBAh2-56" value="&lt;div style=&quot;font-size: 8px;&quot;&gt;&lt;span style=&quot;font-weight: normal;&quot;&gt;&lt;i&gt;&amp;lt;&amp;lt; block &amp;gt;&amp;gt;&lt;/i&gt;&lt;/span&gt;&lt;/div&gt;&lt;div style=&quot;font-size: 8px;&quot;&gt;&lt;span style=&quot;font-weight: normal;&quot;&gt;&lt;i&gt;&amp;lt;&amp;lt; physical &amp;gt;&amp;gt;&lt;br&gt;&lt;/i&gt;&lt;/span&gt;&lt;/div&gt;&lt;div&gt;Internal Logistics&lt;br&gt;&lt;/div&gt;" style="strokeColor=inherit;fillColor=inherit;gradientColor=inherit;shape=rect;fontStyle=1;html=1;whiteSpace=wrap;align=center;" parent="Q9ZKkBL_76BCk9_iBAh2-4" vertex="1">
          <mxGeometry x="490" y="465" width="110" height="55" as="geometry" />
        </mxCell>
        <mxCell id="Q9ZKkBL_76BCk9_iBAh2-57" value="&lt;div style=&quot;font-size: 8px;&quot;&gt;&lt;span style=&quot;font-weight: normal;&quot;&gt;&lt;i&gt;&amp;lt;&amp;lt; block &amp;gt;&amp;gt;&lt;/i&gt;&lt;/span&gt;&lt;/div&gt;&lt;div style=&quot;font-size: 8px;&quot;&gt;&lt;span style=&quot;font-weight: normal;&quot;&gt;&lt;i&gt;&amp;lt;&amp;lt; physical &amp;gt;&amp;gt;&lt;br&gt;&lt;/i&gt;&lt;/span&gt;&lt;/div&gt;&lt;div&gt;Warehousing&lt;br&gt;&lt;/div&gt;" style="strokeColor=inherit;fillColor=inherit;gradientColor=inherit;shape=rect;fontStyle=1;html=1;whiteSpace=wrap;align=center;" parent="Q9ZKkBL_76BCk9_iBAh2-4" vertex="1">
          <mxGeometry x="680" y="520" width="110" height="55" as="geometry" />
        </mxCell>
        <mxCell id="Q9ZKkBL_76BCk9_iBAh2-58" value="&lt;div style=&quot;font-size: 8px;&quot;&gt;&lt;span style=&quot;font-weight: normal;&quot;&gt;&lt;i&gt;&amp;lt;&amp;lt; block &amp;gt;&amp;gt;&lt;/i&gt;&lt;/span&gt;&lt;/div&gt;&lt;div style=&quot;font-size: 8px;&quot;&gt;&lt;span style=&quot;font-weight: normal;&quot;&gt;&lt;i&gt;&amp;lt;&amp;lt; physical &amp;gt;&amp;gt;&lt;br&gt;&lt;/i&gt;&lt;/span&gt;&lt;/div&gt;&lt;div&gt;Shipping&lt;/div&gt;&amp;nbsp;&amp;amp; Receiving" style="strokeColor=inherit;fillColor=inherit;gradientColor=inherit;shape=rect;fontStyle=1;html=1;whiteSpace=wrap;align=center;" parent="Q9ZKkBL_76BCk9_iBAh2-4" vertex="1">
          <mxGeometry x="810" y="590" width="110" height="55" as="geometry" />
        </mxCell>
        <mxCell id="Q9ZKkBL_76BCk9_iBAh2-59" value="" style="align=right;html=1;verticalAlign=bottom;endArrow=none;startArrow=diamondThin;startSize=14;startFill=1;edgeStyle=orthogonalEdgeStyle;rounded=0;exitX=0.5;exitY=1;exitDx=0;exitDy=0;entryX=0.5;entryY=0;entryDx=0;entryDy=0;" parent="Q9ZKkBL_76BCk9_iBAh2-4" source="Q9ZKkBL_76BCk9_iBAh2-6" target="Q9ZKkBL_76BCk9_iBAh2-57" edge="1">
          <mxGeometry x="1" y="-2" relative="1" as="geometry">
            <mxPoint x="570" y="330" as="sourcePoint" />
            <mxPoint x="730" y="330" as="targetPoint" />
            <Array as="points">
              <mxPoint x="580" y="430" />
              <mxPoint x="735" y="430" />
            </Array>
            <mxPoint x="-1" as="offset" />
          </mxGeometry>
        </mxCell>
        <mxCell id="Q9ZKkBL_76BCk9_iBAh2-60" value="1" style="resizable=0;html=1;align=left;verticalAlign=top;labelBackgroundColor=none;fontSize=10" parent="Q9ZKkBL_76BCk9_iBAh2-59" connectable="0" vertex="1">
          <mxGeometry x="-1" relative="1" as="geometry" />
        </mxCell>
        <mxCell id="Q9ZKkBL_76BCk9_iBAh2-61" value="1" style="resizable=0;html=1;align=right;verticalAlign=top;labelBackgroundColor=none;fontSize=10" parent="Q9ZKkBL_76BCk9_iBAh2-59" connectable="0" vertex="1">
          <mxGeometry x="1" relative="1" as="geometry">
            <mxPoint x="28" y="-25" as="offset" />
          </mxGeometry>
        </mxCell>
        <mxCell id="Q9ZKkBL_76BCk9_iBAh2-62" value="" style="align=right;html=1;verticalAlign=bottom;endArrow=none;startArrow=diamondThin;startSize=14;startFill=1;edgeStyle=orthogonalEdgeStyle;rounded=0;exitX=0.5;exitY=1;exitDx=0;exitDy=0;entryX=0.5;entryY=0;entryDx=0;entryDy=0;" parent="Q9ZKkBL_76BCk9_iBAh2-4" source="Q9ZKkBL_76BCk9_iBAh2-6" target="Q9ZKkBL_76BCk9_iBAh2-58" edge="1">
          <mxGeometry x="1" relative="1" as="geometry">
            <mxPoint x="590" y="320" as="sourcePoint" />
            <mxPoint x="605" y="440" as="targetPoint" />
            <Array as="points">
              <mxPoint x="580" y="430" />
              <mxPoint x="865" y="430" />
            </Array>
            <mxPoint as="offset" />
          </mxGeometry>
        </mxCell>
        <mxCell id="Q9ZKkBL_76BCk9_iBAh2-63" value="1" style="resizable=0;html=1;align=left;verticalAlign=top;labelBackgroundColor=none;fontSize=10" parent="Q9ZKkBL_76BCk9_iBAh2-62" connectable="0" vertex="1">
          <mxGeometry x="-1" relative="1" as="geometry" />
        </mxCell>
        <mxCell id="Q9ZKkBL_76BCk9_iBAh2-64" value="1" style="resizable=0;html=1;align=right;verticalAlign=top;labelBackgroundColor=none;fontSize=10" parent="Q9ZKkBL_76BCk9_iBAh2-62" connectable="0" vertex="1">
          <mxGeometry x="1" relative="1" as="geometry">
            <mxPoint x="20" y="-25" as="offset" />
          </mxGeometry>
        </mxCell>
        <mxCell id="Q9ZKkBL_76BCk9_iBAh2-65" value="" style="align=right;html=1;verticalAlign=bottom;endArrow=none;startArrow=diamondThin;startSize=14;startFill=1;edgeStyle=orthogonalEdgeStyle;rounded=0;exitX=0.5;exitY=1;exitDx=0;exitDy=0;entryX=0.5;entryY=0;entryDx=0;entryDy=0;" parent="Q9ZKkBL_76BCk9_iBAh2-4" source="Q9ZKkBL_76BCk9_iBAh2-6" target="Q9ZKkBL_76BCk9_iBAh2-56" edge="1">
          <mxGeometry x="0.95" relative="1" as="geometry">
            <mxPoint x="520" y="270" as="sourcePoint" />
            <mxPoint x="680" y="270" as="targetPoint" />
            <Array as="points">
              <mxPoint x="580" y="430" />
              <mxPoint x="540" y="430" />
              <mxPoint x="540" y="465" />
            </Array>
            <mxPoint as="offset" />
          </mxGeometry>
        </mxCell>
        <mxCell id="Q9ZKkBL_76BCk9_iBAh2-66" value="1" style="resizable=0;html=1;align=left;verticalAlign=top;labelBackgroundColor=none;fontSize=10" parent="Q9ZKkBL_76BCk9_iBAh2-65" connectable="0" vertex="1">
          <mxGeometry x="-1" relative="1" as="geometry">
            <mxPoint y="10" as="offset" />
          </mxGeometry>
        </mxCell>
        <mxCell id="Q9ZKkBL_76BCk9_iBAh2-67" value="1" style="resizable=0;html=1;align=right;verticalAlign=top;labelBackgroundColor=none;fontSize=10" parent="Q9ZKkBL_76BCk9_iBAh2-65" connectable="0" vertex="1">
          <mxGeometry x="1" relative="1" as="geometry">
            <mxPoint x="15" y="-25" as="offset" />
          </mxGeometry>
        </mxCell>
        <mxCell id="Q9ZKkBL_76BCk9_iBAh2-68" value="" style="align=right;html=1;verticalAlign=bottom;endArrow=none;startArrow=diamondThin;startSize=14;startFill=1;edgeStyle=orthogonalEdgeStyle;rounded=0;exitX=0.5;exitY=1;exitDx=0;exitDy=0;entryX=0.5;entryY=0;entryDx=0;entryDy=0;" parent="Q9ZKkBL_76BCk9_iBAh2-4" source="Q9ZKkBL_76BCk9_iBAh2-5" target="Q9ZKkBL_76BCk9_iBAh2-10" edge="1">
          <mxGeometry x="0.9048" relative="1" as="geometry">
            <mxPoint x="500" y="330" as="sourcePoint" />
            <mxPoint x="660" y="330" as="targetPoint" />
            <mxPoint as="offset" />
          </mxGeometry>
        </mxCell>
        <mxCell id="Q9ZKkBL_76BCk9_iBAh2-69" value="1" style="resizable=0;html=1;align=left;verticalAlign=top;labelBackgroundColor=none;fontSize=10" parent="Q9ZKkBL_76BCk9_iBAh2-68" connectable="0" vertex="1">
          <mxGeometry x="-1" relative="1" as="geometry">
            <mxPoint x="5" y="10" as="offset" />
          </mxGeometry>
        </mxCell>
        <mxCell id="Q9ZKkBL_76BCk9_iBAh2-70" value="1" style="resizable=0;html=1;align=right;verticalAlign=top;labelBackgroundColor=none;fontSize=10" parent="Q9ZKkBL_76BCk9_iBAh2-68" connectable="0" vertex="1">
          <mxGeometry x="1" relative="1" as="geometry">
            <mxPoint x="25" y="-30" as="offset" />
          </mxGeometry>
        </mxCell>
        <mxCell id="Q9ZKkBL_76BCk9_iBAh2-71" value="" style="align=right;html=1;verticalAlign=bottom;endArrow=none;startArrow=diamondThin;startSize=14;startFill=1;edgeStyle=orthogonalEdgeStyle;rounded=0;exitX=0.5;exitY=1;exitDx=0;exitDy=0;entryX=0.5;entryY=0;entryDx=0;entryDy=0;" parent="Q9ZKkBL_76BCk9_iBAh2-4" source="Q9ZKkBL_76BCk9_iBAh2-5" target="Q9ZKkBL_76BCk9_iBAh2-119" edge="1">
          <mxGeometry x="1" relative="1" as="geometry">
            <mxPoint x="500" y="330" as="sourcePoint" />
            <mxPoint x="660" y="330" as="targetPoint" />
            <Array as="points">
              <mxPoint x="445" y="190" />
              <mxPoint x="150" y="190" />
            </Array>
          </mxGeometry>
        </mxCell>
        <mxCell id="Q9ZKkBL_76BCk9_iBAh2-72" value="1" style="resizable=0;html=1;align=left;verticalAlign=top;labelBackgroundColor=none;fontSize=10" parent="Q9ZKkBL_76BCk9_iBAh2-71" connectable="0" vertex="1">
          <mxGeometry x="-1" relative="1" as="geometry">
            <mxPoint x="5" y="10" as="offset" />
          </mxGeometry>
        </mxCell>
        <mxCell id="Q9ZKkBL_76BCk9_iBAh2-73" value="1" style="resizable=0;html=1;align=right;verticalAlign=top;labelBackgroundColor=none;fontSize=10" parent="Q9ZKkBL_76BCk9_iBAh2-71" connectable="0" vertex="1">
          <mxGeometry x="1" relative="1" as="geometry">
            <mxPoint x="30" y="-30" as="offset" />
          </mxGeometry>
        </mxCell>
        <mxCell id="Q9ZKkBL_76BCk9_iBAh2-74" value="" style="align=right;html=1;verticalAlign=bottom;endArrow=none;startArrow=diamondThin;startSize=14;startFill=1;edgeStyle=orthogonalEdgeStyle;rounded=0;exitX=0.5;exitY=1;exitDx=0;exitDy=0;entryX=0.5;entryY=0;entryDx=0;entryDy=0;" parent="Q9ZKkBL_76BCk9_iBAh2-4" source="Q9ZKkBL_76BCk9_iBAh2-5" target="Q9ZKkBL_76BCk9_iBAh2-55" edge="1">
          <mxGeometry x="1" relative="1" as="geometry">
            <mxPoint x="500" y="330" as="sourcePoint" />
            <mxPoint x="660" y="330" as="targetPoint" />
          </mxGeometry>
        </mxCell>
        <mxCell id="Q9ZKkBL_76BCk9_iBAh2-75" value="1" style="resizable=0;html=1;align=left;verticalAlign=top;labelBackgroundColor=none;fontSize=10" parent="Q9ZKkBL_76BCk9_iBAh2-74" connectable="0" vertex="1">
          <mxGeometry x="-1" relative="1" as="geometry">
            <mxPoint x="5" y="10" as="offset" />
          </mxGeometry>
        </mxCell>
        <mxCell id="Q9ZKkBL_76BCk9_iBAh2-76" value="1" style="resizable=0;html=1;align=right;verticalAlign=top;labelBackgroundColor=none;fontSize=10" parent="Q9ZKkBL_76BCk9_iBAh2-74" connectable="0" vertex="1">
          <mxGeometry x="1" relative="1" as="geometry">
            <mxPoint x="25" y="-30" as="offset" />
          </mxGeometry>
        </mxCell>
        <mxCell id="0YOrRNStGJFLoWrIP_f3-10" style="edgeStyle=orthogonalEdgeStyle;rounded=0;orthogonalLoop=1;jettySize=auto;html=1;exitX=0.75;exitY=1;exitDx=0;exitDy=0;entryX=0;entryY=0.5;entryDx=0;entryDy=0;endArrow=classic;endFill=1;fillColor=#d5e8d4;strokeColor=#82b366;strokeWidth=2;startArrow=classic;startFill=1;" parent="Q9ZKkBL_76BCk9_iBAh2-4" source="Q9ZKkBL_76BCk9_iBAh2-119" target="Q9ZKkBL_76BCk9_iBAh2-17" edge="1">
          <mxGeometry relative="1" as="geometry" />
        </mxCell>
        <mxCell id="0YOrRNStGJFLoWrIP_f3-11" value="Order Data" style="edgeLabel;html=1;align=center;verticalAlign=middle;resizable=0;points=[];" parent="0YOrRNStGJFLoWrIP_f3-10" vertex="1" connectable="0">
          <mxGeometry x="-0.8592" y="-1" relative="1" as="geometry">
            <mxPoint x="1" y="22" as="offset" />
          </mxGeometry>
        </mxCell>
        <mxCell id="Q9ZKkBL_76BCk9_iBAh2-119" value="&lt;div style=&quot;font-size: 8px;&quot;&gt;&lt;font style=&quot;font-size: 8px;&quot;&gt;&lt;span style=&quot;font-weight: normal;&quot;&gt;&lt;i&gt;&amp;lt;&amp;lt; block &amp;gt;&amp;gt;&lt;/i&gt;&lt;/span&gt;&lt;/font&gt;&lt;/div&gt;&lt;div style=&quot;font-size: 8px;&quot;&gt;&lt;font style=&quot;font-size: 8px;&quot;&gt;&lt;font style=&quot;font-size: 8px;&quot;&gt;&lt;font style=&quot;font-size: 8px;&quot;&gt;&lt;span style=&quot;font-weight: normal;&quot;&gt;&lt;i&gt;&amp;lt;&amp;lt; physical &amp;gt;&amp;gt;&lt;br&gt;&lt;/i&gt;&lt;/span&gt;&lt;/font&gt;&lt;/font&gt;&lt;/font&gt;&lt;/div&gt;&lt;div style=&quot;&quot;&gt;&lt;font style=&quot;font-size: 12px;&quot;&gt;Order Management&lt;br&gt;&lt;/font&gt;&lt;/div&gt;&lt;p style=&quot;margin:0px;margin-top:4px;text-align:center;&quot;&gt;&lt;/p&gt;&lt;hr&gt;&lt;p style=&quot;margin:0px;margin-left:8px;text-align:center;&quot;&gt;constraint:&lt;/p&gt;&lt;p style=&quot;margin:0px;margin-left:8px;text-align:center;&quot;&gt;{ only accept valid orders }&lt;br&gt;&lt;/p&gt;" style="shape=rect;html=1;overflow=fill;whiteSpace=wrap;align=center;" parent="Q9ZKkBL_76BCk9_iBAh2-4" vertex="1">
          <mxGeometry x="50" y="240" width="200" height="80" as="geometry" />
        </mxCell>
      </root>
    </mxGraphModel>
  </diagram>
</mxfile>
